<svg width="51" height="36" viewBox="0 0 51 36" fill="none" xmlns="http://www.w3.org/2000/svg">
<path d="M14.8474 35.1365H10.8349V4.34896H0.0390625V0.828125H25.5932V4.34896H14.8474V35.1365Z" fill="black"/>
<path d="M35.0302 35.6068C33.324 35.6068 31.8302 35.4797 30.5469 35.2276C29.2656 34.9776 28.0781 34.5964 26.9844 34.0818V30.1609C27.9677 30.6609 29.124 31.1193 30.4552 31.5359C31.7854 31.9505 33.3271 32.1568 35.0802 32.1568C36.1573 32.1568 37.1896 32.0318 38.176 31.7818C39.1615 31.5318 40.0406 31.1422 40.8135 30.6109C41.5885 30.0776 42.1979 29.3974 42.6427 28.5693C43.0896 27.7391 43.3135 26.7516 43.3135 25.6068C43.3135 24.6849 43.1135 23.8682 42.7135 23.1568C42.3156 22.4464 41.6865 21.7589 40.826 21.0943C39.9677 20.4276 38.8406 19.7109 37.4469 18.9443C36.2573 18.2422 35.1896 17.5026 34.2427 16.7276C33.2979 15.9526 32.5521 15.0464 32.0052 14.0068C31.4573 12.9651 31.1844 11.7016 31.1844 10.2151C31.1844 8.62135 31.4812 7.2099 32.076 5.98177C32.6698 4.75156 33.4865 3.71823 34.526 2.88177C35.5677 2.04635 36.7646 1.41302 38.1177 0.981771C39.4698 0.551563 40.9052 0.335938 42.4219 0.335938C44.2219 0.335938 45.7854 0.517188 47.1135 0.877604C48.4437 1.23594 49.7271 1.72135 50.9635 2.33177L49.4385 5.71094C48.5635 5.24219 47.5115 4.8151 46.2844 4.43177C45.0562 4.04844 43.7687 3.85677 42.4219 3.85677C41.4385 3.85677 40.5198 3.98594 39.6677 4.24427C38.8146 4.5026 38.0677 4.8901 37.426 5.40677C36.7844 5.92135 36.2823 6.55885 35.9219 7.31927C35.5635 8.0776 35.3844 8.95677 35.3844 9.95677C35.3844 10.9734 35.576 11.8182 35.9594 12.4901C36.3427 13.163 36.9052 13.7734 37.6469 14.3234C38.3906 14.8714 39.3104 15.4651 40.4052 16.1068C41.7969 16.9182 43.024 17.7276 44.0885 18.5359C45.1521 19.3422 45.9812 20.2724 46.576 21.3276C47.1698 22.3839 47.4677 23.7089 47.4677 25.3026C47.4677 27.0255 47.1656 28.5318 46.5635 29.8234C45.9635 31.113 45.1073 32.1839 43.9969 33.0359C42.8854 33.8891 41.5698 34.5307 40.051 34.9609C38.5344 35.3911 36.8604 35.6068 35.0302 35.6068Z" fill="black"/>
</svg>
