<?xml version="1.0" encoding="utf-8"?>
<!-- Generator: Adobe Illustrator 27.7.0, SVG Export Plug-In . SVG Version: 6.00 Build 0)  -->
<svg version="1.1" id="Layer_1" xmlns="http://www.w3.org/2000/svg" xmlns:xlink="http://www.w3.org/1999/xlink" x="0px" y="0px"
	 viewBox="0 0 28.5 19.8" style="enable-background:new 0 0 28.5 19.8;" xml:space="preserve">
<style type="text/css">
	.st0{fill:#FFFFFF;}
</style>
<path class="st0" d="M8.3,19.5H6V2.2H0v-2h14.3v2h-6V19.5z"/>
<path class="st0" d="M19.6,19.8c-1,0-1.8-0.1-2.5-0.2c-0.7-0.1-1.4-0.4-2-0.6v-2.2c0.6,0.3,1.2,0.5,1.9,0.8c0.7,0.2,1.6,0.3,2.6,0.3
	c0.6,0,1.2-0.1,1.7-0.2c0.6-0.1,1-0.4,1.5-0.7c0.4-0.3,0.8-0.7,1-1.1c0.3-0.5,0.4-1,0.4-1.7c0-0.5-0.1-1-0.3-1.4
	c-0.2-0.4-0.6-0.8-1.1-1.2c-0.5-0.4-1.1-0.8-1.9-1.2c-0.7-0.4-1.3-0.8-1.8-1.2c-0.5-0.4-0.9-0.9-1.3-1.5c-0.3-0.6-0.5-1.3-0.5-2.1
	c0-0.9,0.2-1.7,0.5-2.4c0.3-0.7,0.8-1.3,1.4-1.7c0.6-0.5,1.3-0.8,2-1.1C22.1,0.1,22.9,0,23.7,0c1,0,1.9,0.1,2.6,0.3
	c0.7,0.2,1.5,0.5,2.2,0.8L27.7,3c-0.5-0.3-1.1-0.5-1.8-0.7C25.2,2.1,24.5,2,23.7,2c-0.6,0-1.1,0.1-1.5,0.2c-0.5,0.1-0.9,0.4-1.3,0.7
	c-0.4,0.3-0.6,0.6-0.8,1.1c-0.2,0.4-0.3,0.9-0.3,1.5c0,0.6,0.1,1,0.3,1.4c0.2,0.4,0.5,0.7,0.9,1c0.4,0.3,0.9,0.6,1.5,1
	c0.8,0.5,1.5,0.9,2.1,1.4c0.6,0.5,1.1,1,1.4,1.6c0.3,0.6,0.5,1.3,0.5,2.2c0,1-0.2,1.8-0.5,2.5c-0.3,0.7-0.8,1.3-1.4,1.8
	c-0.6,0.5-1.4,0.8-2.2,1.1C21.6,19.6,20.6,19.8,19.6,19.8z"/>
</svg>
