<svg width="479" height="179" viewBox="0 0 479 179" fill="none" xmlns="http://www.w3.org/2000/svg">
<rect x="2" y="2" width="475" height="175" fill="#F6F6F6"/>
<path d="M240.544 91.9091C240.544 94.7045 240.032 97.108 239.01 99.1193C237.987 101.122 236.585 102.665 234.804 103.747C233.031 104.821 231.015 105.358 228.757 105.358C226.49 105.358 224.466 104.821 222.684 103.747C220.912 102.665 219.514 101.118 218.491 99.1065C217.468 97.0952 216.957 94.696 216.957 91.9091C216.957 89.1136 217.468 86.7145 218.491 84.7116C219.514 82.7003 220.912 81.1577 222.684 80.0838C224.466 79.0014 226.49 78.4602 228.757 78.4602C231.015 78.4602 233.031 79.0014 234.804 80.0838C236.585 81.1577 237.987 82.7003 239.01 84.7116C240.032 86.7145 240.544 89.1136 240.544 91.9091ZM236.632 91.9091C236.632 89.7784 236.287 87.9844 235.596 86.527C234.915 85.0611 233.977 83.9531 232.784 83.2031C231.599 82.4446 230.257 82.0653 228.757 82.0653C227.248 82.0653 225.902 82.4446 224.717 83.2031C223.532 83.9531 222.595 85.0611 221.905 86.527C221.223 87.9844 220.882 89.7784 220.882 91.9091C220.882 94.0398 221.223 95.8381 221.905 97.304C222.595 98.7614 223.532 99.8693 224.717 100.628C225.902 101.378 227.248 101.753 228.757 101.753C230.257 101.753 231.599 101.378 232.784 100.628C233.977 99.8693 234.915 98.7614 235.596 97.304C236.287 95.8381 236.632 94.0398 236.632 91.9091ZM244.749 105V78.8182H254.081C256.11 78.8182 257.793 79.1676 259.131 79.8665C260.478 80.5653 261.483 81.5327 262.148 82.7685C262.813 83.9957 263.145 85.4148 263.145 87.0256C263.145 88.6278 262.809 90.0384 262.135 91.2571C261.47 92.4673 260.465 93.4091 259.118 94.0824C257.78 94.7557 256.097 95.0923 254.068 95.0923H246.999V91.6918H253.71C254.989 91.6918 256.029 91.5085 256.83 91.142C257.639 90.7756 258.232 90.2429 258.607 89.544C258.982 88.8452 259.169 88.0057 259.169 87.0256C259.169 86.0369 258.978 85.1804 258.594 84.456C258.219 83.7315 257.627 83.1776 256.817 82.794C256.016 82.402 254.963 82.206 253.659 82.206H248.699V105H244.749ZM257.674 93.1875L264.142 105H259.642L253.301 93.1875H257.674Z" fill="black"/>
<rect x="2" y="2" width="475" height="175" stroke="white" stroke-width="4"/>
</svg>
