<?xml version="1.0" encoding="utf-8"?>
<!-- Generator: Adobe Illustrator 27.7.0, SVG Export Plug-In . SVG Version: 6.00 Build 0)  -->
<svg version="1.1" id="Layer_1" xmlns="http://www.w3.org/2000/svg" xmlns:xlink="http://www.w3.org/1999/xlink" x="0px" y="0px"
	 viewBox="0 0 12 12" style="enable-background:new 0 0 12 12;" xml:space="preserve">
<style type="text/css">
	.st0{fill:#D92D20;}
</style>
<g>
	<g>
		<path class="st0" d="M6,11.5C3,11.5,0.5,9,0.5,6C0.5,3,3,0.5,6,0.5c3,0,5.5,2.5,5.5,5.5C11.5,9,9,11.5,6,11.5z M6,1.5
			c-2.5,0-4.5,2-4.5,4.5s2,4.5,4.5,4.5s4.5-2,4.5-4.5S8.5,1.5,6,1.5z M6,8.5C5.7,8.5,5.5,8.3,5.5,8S5.7,7.5,6,7.5h0
			c0.3,0,0.5,0.2,0.5,0.5S6.3,8.5,6,8.5z M6,6.5C5.7,6.5,5.5,6.3,5.5,6V4c0-0.3,0.2-0.5,0.5-0.5S6.5,3.7,6.5,4v2
			C6.5,6.3,6.3,6.5,6,6.5z"/>
	</g>
</g>
</svg>
