<?xml version="1.0" encoding="utf-8"?>
<!-- Generator: Adobe Illustrator 27.7.0, SVG Export Plug-In . SVG Version: 6.00 Build 0)  -->
<svg version="1.1" id="Layer_1" xmlns="http://www.w3.org/2000/svg" xmlns:xlink="http://www.w3.org/1999/xlink" x="0px" y="0px"
	 viewBox="0 0 20 20" style="enable-background:new 0 0 20 20;" xml:space="preserve">
<style type="text/css">
	.st0{fill:#344054;}
</style>
<g>
	<path class="st0" d="M15.8,19.2H4.2c-1.4,0-2.5-1.1-2.5-2.5V5c0-1.4,1.1-2.5,2.5-2.5h1.7V1.7c0-0.5,0.4-0.8,0.8-0.8
		s0.8,0.4,0.8,0.8v0.8h5V1.7c0-0.5,0.4-0.8,0.8-0.8s0.8,0.4,0.8,0.8v0.8h1.7c1.4,0,2.5,1.1,2.5,2.5v11.7
		C18.3,18,17.2,19.2,15.8,19.2z M3.3,9.2v7.5c0,0.5,0.4,0.8,0.8,0.8h11.7c0.5,0,0.8-0.4,0.8-0.8V9.2H3.3z M3.3,7.5h13.3V5
		c0-0.5-0.4-0.8-0.8-0.8h-1.7V5c0,0.5-0.4,0.8-0.8,0.8S12.5,5.5,12.5,5V4.2h-5V5c0,0.5-0.4,0.8-0.8,0.8S5.8,5.5,5.8,5V4.2H4.2
		C3.7,4.2,3.3,4.5,3.3,5V7.5z"/>
</g>
</svg>
