<svg width="21" height="19" viewBox="0 0 21 19" fill="none" xmlns="http://www.w3.org/2000/svg">
<path d="M18.1322 2.85294H15.3097L13.9165 0.761765C13.8627 0.681116 13.7898 0.615016 13.7043 0.569348C13.6188 0.523679 13.5233 0.499857 13.4263 0.500001H7.15181C7.05486 0.499857 6.95937 0.523679 6.87385 0.569348C6.78833 0.615016 6.71542 0.681116 6.66161 0.761765L5.26749 2.85294H2.44593C1.87389 2.85294 1.32528 3.08018 0.920793 3.48467C0.516303 3.88916 0.289063 4.43777 0.289062 5.0098V15.9902C0.289063 16.5622 0.516303 17.1108 0.920793 17.5153C1.32528 17.9198 1.87389 18.1471 2.44593 18.1471H18.1322C18.7042 18.1471 19.2528 17.9198 19.6573 17.5153C20.0618 17.1108 20.2891 16.5622 20.2891 15.9902V5.0098C20.2891 4.43777 20.0618 3.88916 19.6573 3.48467C19.2528 3.08018 18.7042 2.85294 18.1322 2.85294ZM19.1126 15.9902C19.1126 16.2502 19.0093 16.4996 18.8254 16.6834C18.6416 16.8673 18.3922 16.9706 18.1322 16.9706H2.44593C2.18591 16.9706 1.93654 16.8673 1.75268 16.6834C1.56882 16.4996 1.46553 16.2502 1.46553 15.9902V5.0098C1.46553 4.74979 1.56882 4.50042 1.75268 4.31656C1.93654 4.1327 2.18591 4.02941 2.44593 4.02941H5.58318C5.68013 4.02956 5.77562 4.00573 5.86114 3.96007C5.94666 3.9144 6.01957 3.8483 6.07338 3.76765L7.46651 1.67647H13.1106L14.5047 3.76765C14.5586 3.8483 14.6315 3.9144 14.717 3.96007C14.8025 4.00573 14.898 4.02956 14.9949 4.02941H18.1322C18.3922 4.02941 18.6416 4.1327 18.8254 4.31656C19.0093 4.50042 19.1126 4.74979 19.1126 5.0098V15.9902ZM10.2891 5.9902C9.47467 5.9902 8.67856 6.23169 8.00142 6.68415C7.32428 7.1366 6.79651 7.77969 6.48485 8.53209C6.1732 9.28449 6.09165 10.1124 6.25053 10.9112C6.40941 11.7099 6.80158 12.4436 7.37745 13.0195C7.95331 13.5953 8.687 13.9875 9.48575 14.1464C10.2845 14.3053 11.1124 14.2237 11.8648 13.9121C12.6172 13.6004 13.2603 13.0726 13.7128 12.3955C14.1652 11.7183 14.4067 10.9222 14.4067 10.1078C14.4067 9.01578 13.9729 7.96844 13.2007 7.19623C12.4285 6.42402 11.3811 5.9902 10.2891 5.9902ZM10.2891 13.049C9.70735 13.049 9.13871 12.8765 8.65503 12.5533C8.17136 12.2302 7.79438 11.7708 7.57177 11.2334C7.34916 10.696 7.29091 10.1046 7.4044 9.53405C7.51789 8.96352 7.79801 8.43945 8.20934 8.02812C8.62067 7.61679 9.14474 7.33667 9.71527 7.22318C10.2858 7.10969 10.8772 7.16794 11.4146 7.39055C11.952 7.61316 12.4114 7.99014 12.7346 8.47381C13.0577 8.95749 13.2302 9.52613 13.2302 10.1078C13.2302 10.8879 12.9204 11.636 12.3688 12.1876C11.8172 12.7391 11.0691 13.049 10.2891 13.049Z" fill="black"/>
</svg>
