<?xml version="1.0" encoding="utf-8"?>
<!-- Generator: Adobe Illustrator 27.7.0, SVG Export Plug-In . SVG Version: 6.00 Build 0)  -->
<svg version="1.1" id="Layer_1" xmlns="http://www.w3.org/2000/svg" xmlns:xlink="http://www.w3.org/1999/xlink" x="0px" y="0px"
	 viewBox="0 0 12 12" style="enable-background:new 0 0 12 12;" xml:space="preserve">
<style type="text/css">
	.st0{fill:#039855;}
</style>
<g>
	<g>
		<path class="st0" d="M6,11.5c-0.6,0-1.3-0.1-1.9-0.3C3,10.8,2,10,1.4,9c-0.6-1-1-2.2-0.9-3.4c0.1-1.2,0.5-2.3,1.3-3.2
			s1.8-1.5,3-1.8C5.9,0.4,7.2,0.5,8.2,1c0.3,0.1,0.4,0.4,0.3,0.7C8.4,1.9,8.1,2,7.8,1.9C7,1.5,5.9,1.4,5,1.6
			C4.1,1.8,3.2,2.3,2.6,3.1C2,3.8,1.6,4.7,1.5,5.7c-0.1,1,0.2,1.9,0.7,2.7c0.5,0.8,1.3,1.4,2.2,1.8c0.9,0.3,1.9,0.4,2.8,0.1
			C8.2,10,9,9.5,9.6,8.7C10.2,7.9,10.5,7,10.5,6V5.5C10.5,5.3,10.7,5,11,5s0.5,0.2,0.5,0.5V6c0,1.2-0.4,2.3-1.1,3.3s-1.7,1.6-2.8,2
			C7.1,11.4,6.5,11.5,6,11.5z M6,7.5c-0.1,0-0.3-0.1-0.4-0.1L4.1,5.9C4,5.7,4,5.3,4.1,5.2s0.5-0.2,0.7,0L6,6.3l4.6-4.7
			c0.2-0.2,0.5-0.2,0.7,0c0.2,0.2,0.2,0.5,0,0.7l-5,5C6.3,7.5,6.1,7.5,6,7.5z"/>
	</g>
</g>
</svg>
