<?xml version="1.0" encoding="utf-8"?>
<!-- Generator: Adobe Illustrator 27.7.0, SVG Export Plug-In . SVG Version: 6.00 Build 0)  -->
<svg version="1.1" id="Layer_1" xmlns="http://www.w3.org/2000/svg" xmlns:xlink="http://www.w3.org/1999/xlink" x="0px" y="0px"
	 viewBox="0 0 20 20" style="enable-background:new 0 0 20 20;" xml:space="preserve">
<style type="text/css">
	.st0{fill:#667085;}
</style>
<g>
	<path class="st0" d="M10,18.3L10,18.3C10,18.3,10,18.3,10,18.3L10,18.3C10,18.3,10,18.3,10,18.3L10,18.3c-0.1,0-0.2,0-0.3-0.1
		c-0.1,0-0.2-0.1-0.3-0.2c0,0,0,0,0,0l0,0l0,0c0,0,0,0,0,0h0c0,0,0,0,0,0c0,0,0,0,0,0l0,0c0,0,0,0,0,0l0,0c0,0,0,0,0,0c0,0,0,0,0,0
		l-3.3-3.3c-0.3-0.3-0.3-0.9,0-1.2c0.3-0.3,0.9-0.3,1.2,0l1.9,1.9V10c0-0.5,0.4-0.8,0.8-0.8s0.8,0.4,0.8,0.8v5.5l1.9-1.9
		c0.3-0.3,0.9-0.3,1.2,0c0.3,0.3,0.3,0.9,0,1.2l-3.3,3.3c-0.1,0.1-0.2,0.1-0.3,0.2C10.2,18.3,10.1,18.3,10,18.3L10,18.3
		C10,18.3,10,18.3,10,18.3L10,18.3C10,18.3,10,18.3,10,18.3z M17.4,15.9c-0.3,0-0.5-0.1-0.7-0.4c-0.3-0.4-0.2-0.9,0.2-1.2
		c0.6-0.4,1-1,1.2-1.7c0.2-0.7,0.2-1.4,0-2.1C18,10,17.5,9.4,17,9c-0.6-0.4-1.3-0.6-2-0.6c0,0,0,0,0,0H14c-0.4,0-0.7-0.3-0.8-0.6
		c-0.2-0.8-0.6-1.7-1.2-2.3c-0.6-0.7-1.3-1.2-2.1-1.6C9,3.5,8.2,3.3,7.3,3.3C6.4,3.4,5.5,3.6,4.8,4C4,4.4,3.3,5,2.8,5.7
		c-0.5,0.7-0.9,1.5-1,2.4C1.6,9,1.6,9.9,1.9,10.7c0.2,0.8,0.7,1.6,1.2,2.3c0.3,0.3,0.3,0.9-0.1,1.2c-0.3,0.3-0.9,0.3-1.2-0.1
		c-0.7-0.8-1.3-1.9-1.6-3C0,10.1-0.1,8.9,0.1,7.8c0.2-1.1,0.7-2.2,1.3-3.1C2.1,3.8,3,3.1,4,2.5C5,2,6.1,1.7,7.2,1.7
		c1.1,0,2.3,0.2,3.3,0.6c1,0.5,2,1.2,2.7,2c0.6,0.7,1,1.5,1.4,2.4H15c0,0,0,0,0,0c1.1,0,2.1,0.3,3,1c0.9,0.6,1.5,1.5,1.8,2.5
		s0.3,2.1,0,3.1c-0.3,1-1,1.9-1.9,2.5C17.7,15.9,17.6,15.9,17.4,15.9z"/>
</g>
</svg>
