<svg width="18" height="17" viewBox="0 0 18 17" fill="none" xmlns="http://www.w3.org/2000/svg">
<path fill-rule="evenodd" clip-rule="evenodd" d="M14 2.39844C13.7964 2.39844 13.6011 2.47935 13.4571 2.62328L13.4571 2.6233L3.2363 12.8441L2.87437 14.2918L4.32209 13.9299L14.5429 3.70909L14.543 3.70898C14.6143 3.63776 14.6707 3.55322 14.7093 3.46016C14.748 3.36672 14.7678 3.26681 14.7678 3.1662C14.7678 3.06559 14.748 2.96568 14.7093 2.87226L14.7093 2.87224C14.6707 2.77919 14.6143 2.69464 14.543 2.62339C14.4715 2.55194 14.3869 2.49542 14.2939 2.45689C14.2007 2.4183 14.1008 2.39844 14 2.39844ZM12.0429 1.20911C12.562 0.690007 13.266 0.398438 14 0.398438C14.3634 0.398438 14.7233 0.47002 15.0592 0.609105C15.3951 0.748251 15.7001 0.952149 15.957 1.20898L15.957 1.209C16.2142 1.46607 16.4181 1.77126 16.5571 2.10717L15.6347 2.48907L16.5571 2.10716C16.5571 2.10716 16.5571 2.10717 16.5571 2.10717C16.6961 2.44269 16.7678 2.80253 16.7678 3.1662C16.7678 3.52989 16.6961 3.88972 16.5571 4.22523C16.4181 4.56109 16.2142 4.86625 15.9571 5.1233L15.25 4.4162L15.957 5.12341L5.54044 15.54C5.41228 15.6682 5.2517 15.7591 5.07586 15.803L1.74253 16.6363C1.40176 16.7215 1.04127 16.6217 0.792896 16.3733C0.544517 16.1249 0.44467 15.7644 0.529864 15.4237L1.36319 12.0904C1.40715 11.9145 1.49807 11.754 1.62623 11.6258L12.0429 1.20911ZM12.0429 1.20911L12.75 1.9162L12.0429 1.20909L12.0429 1.20911ZM8.00001 15.6662C8.00001 15.1139 8.44772 14.6662 9.00001 14.6662H16.5C17.0523 14.6662 17.5 15.1139 17.5 15.6662C17.5 16.2185 17.0523 16.6662 16.5 16.6662H9.00001C8.44772 16.6662 8.00001 16.2185 8.00001 15.6662Z" fill="black" fill-opacity="0.7"/>
</svg>
