<?xml version="1.0" encoding="utf-8"?>
<!-- Generator: Adobe Illustrator 27.7.0, SVG Export Plug-In . SVG Version: 6.00 Build 0)  -->
<svg version="1.1" id="Layer_1" xmlns="http://www.w3.org/2000/svg" xmlns:xlink="http://www.w3.org/1999/xlink" x="0px" y="0px"
	 viewBox="0 0 20 20" style="enable-background:new 0 0 20 20;" xml:space="preserve">
<style type="text/css">
	.st0{fill:#667085;}
</style>
<g>
	<path class="st0" d="M0.9,20c-0.2,0-0.5-0.1-0.6-0.3C0,19.5-0.1,19.2,0,18.8l1.4-5c0-0.2,0.1-0.3,0.2-0.4L14,1
		c0.3-0.3,0.7-0.6,1.1-0.8c0.9-0.4,1.8-0.4,2.7,0C18.3,0.4,18.6,0.7,19,1c0.3,0.3,0.6,0.7,0.8,1.1C19.9,2.6,20,3,20,3.5
		c0,0.5-0.1,0.9-0.3,1.3C19.6,5.3,19.3,5.7,19,6L6.6,18.4c-0.1,0.1-0.3,0.2-0.4,0.2l-5,1.4C1.1,20,1,20,0.9,20z M3.1,14.5l-0.9,3.3
		l3.3-0.9L17.7,4.7C17.8,4.5,18,4.4,18,4.1c0.1-0.2,0.1-0.4,0.1-0.6s0-0.4-0.1-0.6c-0.1-0.2-0.2-0.4-0.4-0.5C17.5,2.2,17.3,2,17.1,2
		c-0.4-0.2-0.9-0.2-1.3,0c-0.2,0.1-0.4,0.2-0.5,0.4L3.1,14.5z"/>
</g>
</svg>
