<?xml version="1.0" encoding="utf-8"?>
<!-- Generator: Adobe Illustrator 27.7.0, SVG Export Plug-In . SVG Version: 6.00 Build 0)  -->
<svg version="1.1" id="Layer_1" xmlns="http://www.w3.org/2000/svg" xmlns:xlink="http://www.w3.org/1999/xlink" x="0px" y="0px"
	 viewBox="0 0 25 25" style="enable-background:new 0 0 25 25;" xml:space="preserve">
<path d="M23.5,6H12.7L9.1,2.4C9,2.3,8.8,2.2,8.7,2.1C8.5,2,8.3,2,8.1,2H1.5C1.1,2,0.7,2.2,0.4,2.4C0.2,2.7,0,3.1,0,3.5v18.1
	c0,0.4,0.2,0.7,0.4,1C0.7,22.8,1,23,1.4,23h22.2c0.4,0,0.7-0.1,1-0.4c0.3-0.3,0.4-0.6,0.4-1V7.5c0-0.4-0.2-0.8-0.4-1.1
	C24.3,6.2,23.9,6,23.5,6z M1,3.5c0-0.1,0.1-0.3,0.1-0.4C1.2,3.1,1.4,3,1.5,3h6.6c0.1,0,0.3,0.1,0.4,0.1L11.3,6H1V3.5z M24,21.6
	c0,0.1,0,0.2-0.1,0.3C23.8,22,23.7,22,23.6,22H1.4c-0.1,0-0.2,0-0.3-0.1C1,21.8,1,21.7,1,21.6V7h22.5c0.1,0,0.3,0.1,0.4,0.1
	C23.9,7.2,24,7.4,24,7.5V21.6z"/>
</svg>
