<?xml version="1.0" encoding="utf-8"?>
<!-- Generator: Adobe Illustrator 27.7.0, SVG Export Plug-In . SVG Version: 6.00 Build 0)  -->
<svg version="1.1" id="Layer_1" xmlns="http://www.w3.org/2000/svg" xmlns:xlink="http://www.w3.org/1999/xlink" x="0px" y="0px"
	 viewBox="0 0 17 16" style="enable-background:new 0 0 17 16;" xml:space="preserve">
<style type="text/css">
	.st0{fill:#98A2B3;}
</style>
<g>
	<path class="st0" d="M8.5,15.3c-4,0-7.3-3.3-7.3-7.3s3.3-7.3,7.3-7.3S15.8,4,15.8,8S12.5,15.3,8.5,15.3z M8.5,2c-3.3,0-6,2.7-6,6
		s2.7,6,6,6s6-2.7,6-6S11.8,2,8.5,2z M8.5,12c-0.4,0-0.7-0.3-0.7-0.7s0.3-0.7,0.7-0.7h0c0.4,0,0.7,0.3,0.7,0.7S8.9,12,8.5,12z
		 M8.4,9.3c-0.3,0-0.5-0.2-0.6-0.5C7.7,8.5,7.9,8.2,8.2,8c0.4-0.1,1.5-0.7,1.5-1.4c0-0.3-0.1-0.6-0.3-0.9C9.3,5.6,9,5.4,8.7,5.4
		C8.4,5.3,8,5.4,7.8,5.5C7.5,5.7,7.3,5.9,7.2,6.2C7.1,6.6,6.7,6.8,6.3,6.6C6,6.5,5.8,6.1,5.9,5.8c0.2-0.6,0.6-1.1,1.2-1.4
		C7.6,4,8.3,3.9,8.9,4c0.6,0.1,1.2,0.4,1.6,0.9c0.4,0.5,0.6,1.1,0.6,1.7c0,1.8-2.2,2.5-2.5,2.6C8.6,9.3,8.5,9.3,8.4,9.3z"/>
</g>
</svg>
