<?xml version="1.0" encoding="utf-8"?>
<!-- Generator: Adobe Illustrator 27.7.0, SVG Export Plug-In . SVG Version: 6.00 Build 0)  -->
<svg version="1.1" id="Layer_1" xmlns="http://www.w3.org/2000/svg" xmlns:xlink="http://www.w3.org/1999/xlink" x="0px" y="0px"
	 viewBox="0 0 23.3 25.7" style="enable-background:new 0 0 23.3 25.7;" xml:space="preserve">
<style type="text/css">
	.st0{fill:#F94144;}
</style>
<g>
	<path class="st0" d="M19.8,25.7H3.5c-1.9,0-3.5-1.6-3.5-3.5V14c0-1.9,1.6-3.5,3.5-3.5h1.2V7c0-1.9,0.7-3.6,2-4.9
		C8,0.7,9.8,0,11.7,0c1.8,0,3.6,0.7,5,2c1.3,1.3,2,3.1,2,5v3.5h1.2c1.9,0,3.5,1.6,3.5,3.5v8.2C23.3,24.1,21.8,25.7,19.8,25.7z
		 M3.5,12.8c-0.6,0-1.2,0.5-1.2,1.2v8.2c0,0.6,0.5,1.2,1.2,1.2h16.3c0.6,0,1.2-0.5,1.2-1.2V14c0-0.6-0.5-1.2-1.2-1.2H3.5z M7,10.5
		h9.3V7c0-1.2-0.5-2.4-1.4-3.3c-0.9-0.9-2.1-1.4-3.3-1.4c-1.2,0-2.4,0.5-3.3,1.4C7.5,4.6,7,5.8,7,7V10.5z"/>
</g>
</svg>
