<?xml version="1.0" encoding="utf-8"?>
<!-- Generator: Adobe Illustrator 27.7.0, SVG Export Plug-In . SVG Version: 6.00 Build 0)  -->
<svg version="1.1" id="Layer_1" xmlns="http://www.w3.org/2000/svg" xmlns:xlink="http://www.w3.org/1999/xlink" x="0px" y="0px"
	 viewBox="0 0 20.5 19.8" style="enable-background:new 0 0 20.5 19.8;" xml:space="preserve">
<style type="text/css">
	.st0{fill-rule:evenodd;clip-rule:evenodd;fill:#920000;}
</style>
<path class="st0" d="M9.3,19.8H4.4c-2.4,0-4.4-2-4.4-4.4v-11C0,2,2,0,4.4,0h4.9c2.4,0,4.4,2,4.4,4.4v0.9C13.7,5.7,13.4,6,13,6
	c-0.4,0-0.8-0.3-0.8-0.7V4.4c0-1.6-1.3-2.9-2.9-2.9H4.4c-1.6,0-2.9,1.3-2.9,2.9v11c0,1.6,1.3,2.9,2.9,2.9h4.9c1.6,0,2.9-1.3,2.9-2.9
	v-0.9c0-0.4,0.3-0.7,0.8-0.7c0.4,0,0.8,0.3,0.8,0.7v0.9C13.7,17.8,11.8,19.8,9.3,19.8z"/>
<path class="st0" d="M20.5,9.9c0,0,0,0.1,0,0.1c0,0.1-0.1,0.3-0.2,0.4l-2.9,2.9c-0.1,0.2-0.3,0.2-0.5,0.2c-0.2,0-0.4-0.1-0.5-0.2
	c-0.3-0.3-0.3-0.8,0-1l1.6-1.6H7.7C7.3,10.6,7,10.3,7,9.9c0-0.4,0.3-0.7,0.8-0.7H18l-1.6-1.6c-0.3-0.3-0.3-0.8,0-1
	c0.3-0.3,0.8-0.3,1,0l2.9,2.9v0c0.1,0.1,0.1,0.2,0.2,0.2C20.5,9.7,20.5,9.8,20.5,9.9z"/>
</svg>
