<?xml version="1.0" encoding="utf-8"?>
<!-- Generator: Adobe Illustrator 27.7.0, SVG Export Plug-In . SVG Version: 6.00 Build 0)  -->
<svg version="1.1" id="Layer_1" xmlns="http://www.w3.org/2000/svg" xmlns:xlink="http://www.w3.org/1999/xlink" x="0px" y="0px"
	 viewBox="0 0 21 20" style="enable-background:new 0 0 21 20;" xml:space="preserve">
<style type="text/css">
	.st0{fill:#667085;}
</style>
<g>
	<path class="st0" d="M17.2,17.5H3.8c-1.4,0-2.5-1.1-2.5-2.5V5c0,0,0,0,0,0c0-1.4,1.1-2.5,2.5-2.5h13.3c1.4,0,2.5,1.1,2.5,2.5
		c0,0,0,0,0,0v10C19.7,16.4,18.5,17.5,17.2,17.5z M3,6.6V15c0,0.5,0.4,0.8,0.8,0.8h13.3c0.5,0,0.8-0.4,0.8-0.8V6.6l-7,4.9
		c-0.3,0.2-0.7,0.2-1,0L3,6.6z M3.1,4.6l7.4,5.2l7.4-5.2c-0.1-0.3-0.4-0.5-0.7-0.5H3.8C3.5,4.2,3.2,4.4,3.1,4.6z"/>
</g>
</svg>
