<?xml version="1.0" encoding="utf-8"?>
<!-- Generator: Adobe Illustrator 27.7.0, SVG Export Plug-In . SVG Version: 6.00 Build 0)  -->
<svg version="1.1" id="Layer_1" xmlns="http://www.w3.org/2000/svg" xmlns:xlink="http://www.w3.org/1999/xlink" x="0px" y="0px"
	 viewBox="0 0 20.8 20.8" style="enable-background:new 0 0 20.8 20.8;" xml:space="preserve">
<style type="text/css">
	.st0{fill:#F6F6F6;}
</style>
<g>
	<path class="st0" d="M11.2,19.8l-2-0.2c-0.3,0-0.5,0.2-0.5,0.5c0,0.3,0.2,0.5,0.5,0.5l2,0.2c0,0,0,0,0,0c0.3,0,0.5-0.2,0.5-0.5
		C11.7,20,11.4,19.8,11.2,19.8z"/>
	<path class="st0" d="M18.4,17.4l-1.5-0.1l0.7-8.4c0.2-1.7-0.4-3.4-1.5-4.7c-0.8-1-1.9-1.7-3.1-2c0.1-0.2,0.2-0.4,0.2-0.6
		c0-0.4-0.1-0.8-0.3-1.1c-0.3-0.3-0.6-0.5-1-0.5c-0.8-0.1-1.6,0.5-1.6,1.3c0,0.2,0,0.4,0.1,0.7C9.2,2.1,8,2.6,7,3.5
		C5.7,4.5,4.9,6.1,4.7,7.8L4,16.2l-1.5-0.1c-0.3,0-0.5,0.2-0.5,0.5c0,0.3,0.2,0.5,0.5,0.5l2,0.2l12,1l2,0.2c0,0,0,0,0,0
		c0.3,0,0.5-0.2,0.5-0.5C18.9,17.7,18.7,17.5,18.4,17.4z M11.8,1c0.1,0,0.2,0.1,0.3,0.2c0.1,0.1,0.1,0.2,0.1,0.4
		c0,0.2-0.2,0.4-0.5,0.4h0c-0.1,0-0.3-0.1-0.3-0.2c-0.1-0.1-0.1-0.2-0.1-0.3C11.3,1.2,11.5,1,11.8,1z M15.9,17.2L5,16.3l0.7-8.4
		c0.1-1.4,0.8-2.8,1.9-3.7c1.1-0.9,2.5-1.4,4-1.3h0c1.5,0.1,2.8,0.8,3.7,1.9c0.9,1.1,1.4,2.5,1.3,4L15.9,17.2z"/>
</g>
</svg>
