<?xml version="1.0" encoding="utf-8"?>
<!-- Generator: Adobe Illustrator 27.7.0, SVG Export Plug-In . SVG Version: 6.00 Build 0)  -->
<svg version="1.1" id="Layer_1" xmlns="http://www.w3.org/2000/svg" xmlns:xlink="http://www.w3.org/1999/xlink" x="0px" y="0px"
	 viewBox="0 0 20 20" style="enable-background:new 0 0 20 20;" xml:space="preserve">
<style type="text/css">
	.st0{opacity:0.6;}
</style>
<g class="st0">
	<g>
		<path d="M19,20c-0.3,0-0.5-0.1-0.7-0.3L14.6,16c-1.5,1.2-3.5,2-5.6,2c-5,0-9-4-9-9s4-9,9-9s9,4,9,9c0,2.1-0.7,4.1-2,5.6l3.7,3.7
			c0.4,0.4,0.4,1,0,1.4C19.5,19.9,19.3,20,19,20z M9,2C5.1,2,2,5.1,2,9s3.1,7,7,7c1.9,0,3.6-0.8,4.9-2c0,0,0-0.1,0.1-0.1
			c0,0,0,0,0.1-0.1c1.2-1.3,2-3,2-4.9C16,5.1,12.9,2,9,2z"/>
	</g>
</g>
</svg>
