<?xml version="1.0" encoding="utf-8"?>
<!-- Generator: Adobe Illustrator 27.7.0, SVG Export Plug-In . SVG Version: 6.00 Build 0)  -->
<svg version="1.1" id="Layer_1" xmlns="http://www.w3.org/2000/svg" xmlns:xlink="http://www.w3.org/1999/xlink" x="0px" y="0px"
	 viewBox="0 0 21 20" style="enable-background:new 0 0 21 20;" xml:space="preserve">
<style type="text/css">
	.st0{fill:#F6F6F6;}
</style>
<g>
	<g>
		<path class="st0" d="M10.5,13.3c-1.8,0-3.3-1.5-3.3-3.3s1.5-3.3,3.3-3.3s3.3,1.5,3.3,3.3S12.3,13.3,10.5,13.3z M10.5,8.3
			c-0.9,0-1.7,0.7-1.7,1.7s0.7,1.7,1.7,1.7s1.7-0.7,1.7-1.7S11.4,8.3,10.5,8.3z"/>
	</g>
	<g>
		<path class="st0" d="M10.6,20c-0.7,0-1.3-0.3-1.8-0.7c-0.5-0.5-0.7-1.1-0.7-1.8c0-0.2,0-0.3-0.1-0.4S7.8,17,7.7,16.9
			c-0.1-0.1-0.3-0.1-0.4-0.1c-0.1,0-0.2,0.1-0.3,0.1c-0.3,0.3-0.5,0.5-0.9,0.6c-0.6,0.3-1.3,0.3-1.9,0c-0.3-0.1-0.6-0.3-0.8-0.5
			c-0.2-0.2-0.4-0.5-0.5-0.8c-0.1-0.3-0.2-0.6-0.2-1c0-0.3,0.1-0.7,0.2-1c0.1-0.3,0.3-0.6,0.5-0.8c0.1-0.1,0.2-0.2,0.2-0.3
			c0-0.1,0-0.2,0-0.3c0-0.1-0.1-0.2-0.2-0.2c-0.1-0.1-0.2-0.1-0.3-0.1H3c-0.7,0-1.3-0.3-1.8-0.7c-0.5-0.5-0.7-1.1-0.7-1.8
			c0-0.7,0.3-1.3,0.7-1.8C1.7,7.8,2.3,7.6,3,7.6c0.2,0,0.3,0,0.4-0.1c0.1-0.1,0.2-0.1,0.2-0.3c0.1-0.1,0.1-0.3,0.1-0.4
			c0-0.1-0.1-0.2-0.1-0.3C3.2,6.3,3,6,2.9,5.7c-0.1-0.3-0.2-0.6-0.2-1c0-0.3,0.1-0.7,0.2-1C3,3.5,3.2,3.2,3.4,3
			c0.2-0.2,0.5-0.4,0.8-0.5c0.6-0.3,1.3-0.3,1.9,0C6.4,2.6,6.7,2.7,7,3c0.1,0.1,0.2,0.2,0.3,0.2c0.1,0,0.2,0,0.3,0
			c0.1,0,0.1,0,0.2-0.1C7.8,3,7.9,3,7.9,2.9C8,2.8,8,2.7,8,2.6V2.5c0-0.7,0.3-1.3,0.7-1.8c0.9-0.9,2.6-0.9,3.5,0
			C12.7,1.2,13,1.8,13,2.5c0,0.2,0,0.3,0.1,0.4c0.1,0.1,0.1,0.2,0.2,0.2c0.1,0,0.2,0.1,0.3,0c0.1,0,0.2-0.1,0.3-0.1
			c0.3-0.3,0.6-0.5,0.9-0.6c0.6-0.3,1.3-0.3,1.9,0c0.3,0.1,0.6,0.3,0.8,0.5c0.2,0.2,0.4,0.5,0.5,0.8c0.1,0.3,0.2,0.6,0.2,1
			s-0.1,0.7-0.2,1c-0.1,0.3-0.3,0.6-0.5,0.8c-0.1,0.1-0.2,0.2-0.2,0.3c0,0.1,0,0.2,0,0.3c0,0.1,0,0.1,0.1,0.2c0,0.1,0.1,0.1,0.1,0.1
			c0.1,0.1,0.2,0.1,0.3,0.1H18c0.7,0,1.3,0.3,1.8,0.7c0.5,0.5,0.7,1.1,0.7,1.8s-0.3,1.3-0.7,1.8c-0.5,0.5-1.1,0.7-1.8,0.7
			c-0.2,0-0.3,0-0.4,0.1c-0.1,0.1-0.2,0.1-0.2,0.2c0,0,0,0,0,0c0,0.1-0.1,0.2,0,0.3c0,0.1,0.1,0.2,0.1,0.3c0.3,0.3,0.5,0.6,0.6,0.9
			c0.1,0.3,0.2,0.6,0.2,1s-0.1,0.7-0.2,1c-0.1,0.3-0.3,0.6-0.5,0.8c-0.2,0.2-0.5,0.4-0.8,0.5c-0.6,0.3-1.3,0.3-1.9,0
			c-0.3-0.1-0.6-0.3-0.8-0.5c-0.1-0.1-0.2-0.2-0.3-0.2c-0.1,0-0.2,0-0.3,0c-0.1,0-0.2,0.1-0.2,0.2s-0.1,0.2-0.1,0.3v0.1
			c0,0.7-0.3,1.3-0.7,1.8C11.9,19.7,11.2,20,10.6,20z M7.4,15.2c0.3,0,0.6,0.1,0.9,0.2c0.4,0.1,0.7,0.4,1,0.8
			c0.3,0.4,0.4,0.8,0.4,1.2c0,0.3,0.1,0.5,0.2,0.7c0.3,0.3,0.9,0.3,1.2,0c0.2-0.2,0.2-0.4,0.2-0.6v-0.1c0-0.4,0.1-0.9,0.4-1.2
			c0.2-0.4,0.6-0.6,1-0.8c0.4-0.2,0.8-0.2,1.3-0.1c0.4,0.1,0.8,0.3,1.2,0.6c0.1,0.1,0.2,0.2,0.3,0.2c0.2,0.1,0.4,0.1,0.6,0
			c0.1,0,0.2-0.1,0.3-0.2c0.1-0.1,0.1-0.2,0.2-0.3c0-0.1,0.1-0.2,0.1-0.3s0-0.2-0.1-0.3c0-0.1-0.1-0.2-0.2-0.3
			c-0.4-0.4-0.6-0.8-0.6-1.2c-0.1-0.4,0-0.9,0.2-1.3c0.2-0.4,0.5-0.7,0.8-1c0.4-0.2,0.8-0.4,1.2-0.4c0.3,0,0.5-0.1,0.7-0.2
			c0.2-0.2,0.2-0.4,0.2-0.6s-0.1-0.4-0.2-0.6c-0.2-0.2-0.4-0.2-0.6-0.2h-0.1c-0.4,0-0.9-0.1-1.2-0.4c-0.4-0.2-0.6-0.6-0.8-1
			c0-0.1-0.1-0.1-0.1-0.2c-0.1-0.4-0.2-0.7-0.1-1.1C15.8,6,16,5.6,16.3,5.3c0.1-0.1,0.2-0.2,0.2-0.3c0-0.1,0.1-0.2,0.1-0.3
			s0-0.2-0.1-0.3c0-0.1-0.1-0.2-0.2-0.3c-0.1-0.1-0.2-0.1-0.3-0.2c-0.2-0.1-0.4-0.1-0.6,0c-0.1,0-0.2,0.1-0.3,0.2
			c-0.4,0.4-0.8,0.6-1.2,0.7c-0.4,0.1-0.9,0-1.3-0.2c-0.4-0.2-0.7-0.4-1-0.8c-0.2-0.4-0.4-0.8-0.4-1.2c0-0.3-0.1-0.5-0.2-0.7
			c-0.3-0.3-0.9-0.3-1.2,0C9.8,2.1,9.7,2.3,9.7,2.5v0.1c0,0.4-0.1,0.9-0.4,1.2c-0.2,0.4-0.6,0.6-1,0.8c-0.1,0-0.1,0.1-0.2,0.1
			C7.7,4.8,7.4,4.9,7,4.8C6.5,4.7,6.2,4.5,5.8,4.2C5.7,4.1,5.6,4,5.5,4C5.3,3.9,5.1,3.9,4.9,4C4.8,4,4.7,4.1,4.6,4.2
			S4.5,4.3,4.4,4.4c0,0.1-0.1,0.2-0.1,0.3s0,0.2,0.1,0.3c0,0.1,0.1,0.2,0.2,0.3C5,5.7,5.2,6.1,5.2,6.5c0.1,0.4,0,0.9-0.2,1.3
			C5,8.2,4.7,8.6,4.3,8.8C4,9.1,3.5,9.2,3.1,9.2c-0.3,0-0.5,0.1-0.7,0.2c-0.2,0.2-0.2,0.4-0.2,0.6c0,0.2,0.1,0.4,0.2,0.6
			s0.4,0.2,0.6,0.2h0.1c0.4,0,0.9,0.1,1.2,0.4s0.6,0.6,0.8,1c0.2,0.4,0.2,0.8,0.1,1.3c-0.1,0.4-0.3,0.8-0.6,1.2
			c-0.1,0.1-0.2,0.2-0.2,0.3c0,0.1-0.1,0.2-0.1,0.3s0,0.2,0.1,0.3c0,0.1,0.1,0.2,0.2,0.3C4.7,16,4.8,16,4.9,16.1
			c0.2,0.1,0.4,0.1,0.6,0c0.1,0,0.2-0.1,0.3-0.2c0.4-0.4,0.8-0.6,1.2-0.7C7.2,15.2,7.3,15.2,7.4,15.2z M16.7,12.5L16.7,12.5
			L16.7,12.5z"/>
	</g>
</g>
</svg>
