<?xml version="1.0" encoding="utf-8"?>
<!-- Generator: Adobe Illustrator 27.7.0, SVG Export Plug-In . SVG Version: 6.00 Build 0)  -->
<svg version="1.1" id="Layer_1" xmlns="http://www.w3.org/2000/svg" xmlns:xlink="http://www.w3.org/1999/xlink" x="0px" y="0px"
	 viewBox="0 0 18 18" style="enable-background:new 0 0 18 18;" xml:space="preserve">
<style type="text/css">
	.st0{fill:#667085;}
</style>
<g>
	<path class="st0" d="M13.1,18H4.9c-0.7,0-1.3-0.3-1.7-0.7c-0.5-0.5-0.7-1.1-0.7-1.7V4.9H1.7c-0.5,0-0.8-0.4-0.8-0.8
		s0.4-0.8,0.8-0.8h3.3V2.5c0-0.7,0.3-1.3,0.7-1.7C6.1,0.3,6.7,0,7.4,0h3.3c0.6,0,1.3,0.3,1.7,0.7c0.5,0.5,0.7,1.1,0.7,1.7v0.8h3.3
		c0.4,0,0.8,0.4,0.8,0.8s-0.4,0.8-0.8,0.8h-0.8v10.6c0,0.7-0.3,1.3-0.7,1.7C14.3,17.7,13.7,18,13.1,18z M4.1,4.9v10.6
		c0,0.2,0.1,0.4,0.2,0.6c0.2,0.2,0.4,0.2,0.6,0.2h8.1c0.2,0,0.4-0.1,0.6-0.2c0.2-0.2,0.2-0.4,0.2-0.6V4.9H4.1z M6.6,3.3h4.9V2.5
		c0-0.2-0.1-0.4-0.2-0.6c-0.2-0.2-0.4-0.2-0.6-0.2H7.4c-0.2,0-0.4,0.1-0.6,0.2C6.6,2.1,6.6,2.3,6.6,2.5V3.3z M10.6,13.9
		c-0.4,0-0.8-0.4-0.8-0.8V8.2c0-0.5,0.4-0.8,0.8-0.8c0.4,0,0.8,0.4,0.8,0.8v4.9C11.4,13.5,11.1,13.9,10.6,13.9z M7.4,13.9
		c-0.5,0-0.8-0.4-0.8-0.8V8.2c0-0.5,0.4-0.8,0.8-0.8s0.8,0.4,0.8,0.8v4.9C8.2,13.5,7.8,13.9,7.4,13.9z"/>
</g>
</svg>
