<?xml version="1.0" encoding="utf-8"?>
<!-- Generator: Adobe Illustrator 27.7.0, SVG Export Plug-In . SVG Version: 6.00 Build 0)  -->
<svg version="1.1" id="Layer_1" xmlns="http://www.w3.org/2000/svg" xmlns:xlink="http://www.w3.org/1999/xlink" x="0px" y="0px"
	 viewBox="0 0 20 21" style="enable-background:new 0 0 20 21;" xml:space="preserve">
<style type="text/css">
	.st0{fill:#FFFFFF;}
</style>
<g>
	<g>
		<path class="st0" d="M10,18.8c-0.5,0-0.8-0.4-0.8-0.8v-5.5l-1.9,1.9c-0.3,0.3-0.9,0.3-1.2,0s-0.3-0.9,0-1.2l3.3-3.3c0,0,0,0,0,0
			c0,0,0,0,0,0c0,0,0,0,0,0c0,0,0,0,0,0c0,0,0,0,0,0l0,0c0,0,0,0,0,0l0,0c0,0,0,0,0,0c0,0,0,0,0,0c0,0,0,0,0,0c0,0,0,0,0,0
			c0,0,0,0,0,0c0,0,0,0,0,0c0,0,0,0,0,0c0,0,0,0,0,0c0,0,0,0,0,0c0,0,0,0,0,0l0,0c0.1-0.1,0.2-0.1,0.2-0.2c0.1,0,0.2-0.1,0.3-0.1
			c0,0,0,0,0,0l0,0c0,0,0,0,0,0l0,0c0,0,0,0,0,0c0.1,0,0.2,0,0.3,0.1c0,0,0,0,0,0c0.1,0,0.2,0.1,0.3,0.2c0,0,0,0,0,0c0,0,0,0,0,0
			c0,0,0,0,0,0c0,0,0,0,0,0c0,0,0,0,0,0c0,0,0,0,0,0l3.3,3.3c0.3,0.3,0.3,0.9,0,1.2s-0.9,0.3-1.2,0l-1.9-1.9V18
			C10.8,18.5,10.5,18.8,10,18.8z M17,16.7c-0.3,0-0.6-0.2-0.7-0.4c-0.2-0.4-0.1-0.9,0.3-1.1c0.6-0.4,1.2-0.9,1.5-1.6
			c0.3-0.7,0.4-1.4,0.2-2.2C18,10.6,17.6,10,17,9.5c-0.6-0.5-1.3-0.7-2-0.7h-1c-0.4,0-0.7-0.3-0.8-0.6c-0.2-0.8-0.6-1.6-1.2-2.3
			c-0.6-0.7-1.3-1.2-2.1-1.6C9,4,8.2,3.8,7.3,3.8c-0.9,0-1.7,0.3-2.5,0.7c-0.8,0.4-1.5,1-2,1.7c-0.5,0.7-0.9,1.5-1,2.4
			s-0.1,1.8,0.1,2.6c0.2,0.8,0.7,1.6,1.2,2.3c0.3,0.3,0.3,0.9-0.1,1.2C2.7,15,2.2,15,1.9,14.6c-0.7-0.8-1.3-1.9-1.6-3
			C0,10.6-0.1,9.4,0.1,8.3c0.2-1.1,0.7-2.2,1.3-3.1C2.1,4.3,3,3.6,4,3c1-0.5,2.1-0.8,3.2-0.9c1.1,0,2.3,0.2,3.3,0.6
			c1,0.5,2,1.1,2.7,2c0.6,0.7,1.1,1.5,1.4,2.4H15c1.1,0,2.2,0.4,3.1,1.1c0.9,0.7,1.5,1.6,1.8,2.7c0.3,1.1,0.2,2.2-0.3,3.2
			c-0.4,1-1.2,1.9-2.2,2.4C17.3,16.6,17.1,16.7,17,16.7z"/>
	</g>
</g>
</svg>
