<?xml version="1.0" encoding="utf-8"?>
<!-- Generator: Adobe Illustrator 27.7.0, SVG Export Plug-In . SVG Version: 6.00 Build 0)  -->
<svg version="1.1" id="Layer_1" xmlns="http://www.w3.org/2000/svg" xmlns:xlink="http://www.w3.org/1999/xlink" x="0px" y="0px"
	 viewBox="0 0 24 24" style="enable-background:new 0 0 24 24;" xml:space="preserve">
<g>
	<g>
		<path d="M16,22c-0.6,0-1-0.4-1-1v-2c0-0.8-0.3-1.6-0.9-2.1S12.8,16,12,16H5c-0.8,0-1.6,0.3-2.1,0.9C2.3,17.4,2,18.2,2,19v2
			c0,0.6-0.4,1-1,1s-1-0.4-1-1v-2c0-1.3,0.5-2.6,1.5-3.5C2.4,14.5,3.7,14,5,14h7c1.3,0,2.6,0.5,3.5,1.5S17,17.7,17,19v2
			C17,21.6,16.6,22,16,22z M20,15c-0.6,0-1-0.4-1-1v-2h-2c-0.6,0-1-0.4-1-1s0.4-1,1-1h2V8c0-0.6,0.4-1,1-1s1,0.4,1,1v2h2
			c0.6,0,1,0.4,1,1s-0.4,1-1,1h-2v2C21,14.6,20.6,15,20,15z M8.5,12c-2.8,0-5-2.2-5-5s2.2-5,5-5s5,2.2,5,5S11.3,12,8.5,12z M8.5,4
			c-1.7,0-3,1.3-3,3s1.3,3,3,3s3-1.3,3-3S10.2,4,8.5,4z"/>
	</g>
</g>
</svg>
