<?xml version="1.0" standalone="no"?>
<!DOCTYPE svg PUBLIC "-//W3C//DTD SVG 1.1//EN" "http://www.w3.org/Graphics/SVG/1.1/DTD/svg11.dtd" >
<svg xmlns="http://www.w3.org/2000/svg">
<metadata>Generated by IcoMoon</metadata>
<defs>
<font id="asg" horiz-adv-x="1024">
<font-face units-per-em="1024" ascent="960" descent="-64" />
<missing-glyph horiz-adv-x="1024" />
<glyph unicode="&#x20;" horiz-adv-x="512" d="" />
<glyph unicode="&#xe900;" glyph-name="active" d="M558.545-59.345l-316.509 344.436 260.655 288.582-209.455 269.964 148.945 116.364 311.855-395.636-256-279.273 200.145-218.764z" />
<glyph unicode="&#xe901;" glyph-name="arrow-left" d="M1024 389.881h-835.805l260.151-260.151c22.141-22.141 22.141-55.351 0-77.492s-55.351-22.141-77.492 0l-354.249 354.249c-22.141 22.141-22.141 55.351 0 77.492l354.249 354.249c22.141 22.141 55.351 22.141 77.492 0s22.141-55.351 0-77.492l-260.151-260.151h835.805v-110.703z" />
<glyph unicode="&#xe902;" glyph-name="download" d="M512 23.040v0c0 0 0 0 0 0v0c0 0 0 0 0 0v0c-5.12 0-10.24 0-15.36 5.12-5.12 0-10.24 5.12-15.36 10.24 0 0 0 0 0 0v0 0c0 0 0 0 0 0v0c0 0 0 0 0 0s0 0 0 0v0c0 0 0 0 0 0v0c0 0 0 0 0 0s0 0 0 0l-168.96 168.96c-15.36 15.36-15.36 46.080 0 61.44s46.080 15.36 61.44 0l97.28-97.28v276.48c0 25.6 20.48 40.96 40.96 40.96s40.96-20.48 40.96-40.96v-281.6l97.28 97.28c15.36 15.36 46.080 15.36 61.44 0s15.36-46.080 0-61.44l-168.96-168.96c-5.12-5.12-10.24-5.12-15.36-10.24-5.12 0-10.24 0-15.36 0v0c0 0 0 0 0 0v0c0 0 0 0 0 0zM890.88 145.92c-15.36 0-25.6 5.12-35.84 20.48-15.36 20.48-10.24 46.080 10.24 61.44 30.72 20.48 51.2 51.2 61.44 87.040s10.24 71.68 0 107.52c-5.12 25.6-30.72 56.32-56.32 76.8-30.72 20.48-66.56 30.72-102.4 30.72 0 0 0 0 0 0h-51.2c-20.48 0-35.84 15.36-40.96 30.72-10.24 40.96-30.72 87.040-61.44 117.76-30.72 35.84-66.56 61.44-107.52 81.92-46.080 20.48-87.040 30.72-133.12 30.72-46.080-5.12-92.16-15.36-128-35.84-40.96-20.48-76.8-51.2-102.4-87.040s-46.080-76.8-51.2-122.88c-10.24-46.080-10.24-92.16 5.12-133.12 10.24-40.96 35.84-81.92 61.44-117.76 15.36-15.36 15.36-46.080-5.12-61.44-15.36-15.36-46.080-15.36-61.44 5.12-35.84 40.96-66.56 97.28-81.92 153.6-10.24 51.2-15.36 112.64-5.12 168.96s35.84 112.64 66.56 158.72c35.84 46.080 81.92 81.92 133.12 112.64 51.2 25.6 107.52 40.96 163.84 40.96s117.76-10.24 168.96-30.72c51.2-25.6 102.4-61.44 138.24-102.4 30.72-35.84 51.2-76.8 71.68-122.88h20.48c0 0 0 0 0 0 56.32 0 107.52-15.36 153.6-51.2 46.080-30.72 76.8-76.8 92.16-128s15.36-107.52 0-158.72c-15.36-51.2-51.2-97.28-97.28-128-10.24-5.12-15.36-5.12-25.6-5.12z" />
<glyph unicode="&#xe903;" glyph-name="edit" d="M46.080-64c-10.24 0-25.6 5.12-30.72 15.36-15.36 10.24-20.48 25.6-15.36 46.080l71.68 256c0 10.24 5.12 15.36 10.24 20.48l634.88 634.88c15.36 15.36 35.84 30.72 56.32 40.96 46.080 20.48 92.16 20.48 138.24 0 25.6-10.24 40.96-25.6 61.44-40.96 15.36-15.36 30.72-35.84 40.96-56.32 5.12-25.6 10.24-46.080 10.24-71.68s-5.12-46.080-15.36-66.56c-5.12-25.6-20.48-46.080-35.84-61.44l-634.88-634.88c-5.12-5.12-15.36-10.24-20.48-10.24l-256-71.68c-5.12 0-10.24 0-15.36 0zM158.72 217.6l-46.080-168.96 168.96 46.080 624.64 624.64c5.12 10.24 15.36 15.36 15.36 30.72 5.12 10.24 5.12 20.48 5.12 30.72s0 20.48-5.12 30.72c-5.12 10.24-10.24 20.48-20.48 25.6-5.12 10.24-15.36 20.48-25.6 20.48-20.48 10.24-46.080 10.24-66.56 0-10.24-5.12-20.48-10.24-25.6-20.48l-624.64-619.52z" />
<glyph unicode="&#xe904;" glyph-name="folder" d="M962.56 714.24h-442.368l-147.456 147.456c-4.096 4.096-12.288 8.192-16.384 12.288-8.192 4.096-16.384 4.096-24.576 4.096h-270.336c-16.384 0-32.768-8.192-45.056-16.384-8.192-12.288-16.384-28.672-16.384-45.056v-741.376c0-16.384 8.192-28.672 16.384-40.96 12.288-8.192 24.576-16.384 40.96-16.384h909.312c16.384 0 28.672 4.096 40.96 16.384s16.384 24.576 16.384 40.96v577.536c0 16.384-8.192 32.768-16.384 45.056-12.288 8.192-28.672 16.384-45.056 16.384zM40.96 816.64c0 4.096 4.096 12.288 4.096 16.384 4.096 0 12.288 4.096 16.384 4.096h270.336c4.096 0 12.288-4.096 16.384-4.096l114.688-118.784h-421.888v102.4zM983.040 75.264c0-4.096 0-8.192-4.096-12.288s-8.192-4.096-12.288-4.096h-909.312c-4.096 0-8.192 0-12.288 4.096s-4.096 8.192-4.096 12.288v598.016h921.6c4.096 0 12.288-4.096 16.384-4.096 0-4.096 4.096-12.288 4.096-16.384v-577.536z" />
<glyph unicode="&#xe905;" glyph-name="notification" d="M551.385-14.769l-98.462 9.846c-14.769 0-24.615-9.846-24.615-24.615s9.846-24.615 24.615-24.615l98.462-9.846c0 0 0 0 0 0 14.769 0 24.615 9.846 24.615 24.615s-14.769 24.615-24.615 24.615zM905.846 103.385l-73.846 4.923 34.462 413.538c9.846 83.692-19.692 167.385-73.846 231.385-39.385 49.231-93.538 83.692-152.615 98.462 4.923 9.846 9.846 19.692 9.846 29.538 0 19.692-4.923 39.385-14.769 54.154-14.769 14.769-29.538 24.615-49.231 24.615-39.385 4.923-78.769-24.615-78.769-64 0-9.846 0-19.692 4.923-34.462-59.077-4.923-118.154-29.538-167.385-73.846-64-49.231-103.385-128-113.231-211.692l-34.462-413.538-73.846 4.923c-14.769 0-24.615-9.846-24.615-24.615s9.846-24.615 24.615-24.615l98.462-9.846 590.769-49.231 98.462-9.846c0 0 0 0 0 0 14.769 0 24.615 9.846 24.615 24.615-4.923 14.769-14.769 24.615-29.538 29.538zM580.923 910.769c4.923 0 9.846-4.923 14.769-9.846s4.923-9.846 4.923-19.692c0-9.846-9.846-19.692-24.615-19.692v0c-4.923 0-14.769 4.923-14.769 9.846-4.923 4.923-4.923 9.846-4.923 14.769 0 14.769 9.846 24.615 24.615 24.615zM782.769 113.231l-536.615 44.308 34.462 413.538c4.923 68.923 39.385 137.846 93.538 182.154s123.077 68.923 196.923 64v0c73.846-4.923 137.846-39.385 182.154-93.538s68.923-123.077 64-196.923l-34.462-413.538z" />
<glyph unicode="&#xe906;" glyph-name="search" d="M972.8-64c-15.36 0-25.6 5.12-35.84 15.36l-189.44 189.44c-76.8-61.44-179.2-102.4-286.72-102.4-256 0-460.8 204.8-460.8 460.8s204.8 460.8 460.8 460.8 460.8-204.8 460.8-460.8c0-107.52-35.84-209.92-102.4-286.72l189.44-189.44c20.48-20.48 20.48-51.2 0-71.68-10.24-10.24-20.48-15.36-35.84-15.36zM460.8 857.6c-199.68 0-358.4-158.72-358.4-358.4s158.72-358.4 358.4-358.4c97.28 0 184.32 40.96 250.88 102.4 0 0 0 5.12 5.12 5.12 0 0 0 0 5.12 5.12 61.44 66.56 102.4 153.6 102.4 250.88-5.12 194.56-163.84 353.28-363.52 353.28z" />
<glyph unicode="&#xe907;" glyph-name="settings" d="M512 287.086c-87.771 0-160.914 73.143-160.914 160.914s73.143 160.914 160.914 160.914 160.914-73.143 160.914-160.914-73.143-160.914-160.914-160.914zM512 530.895c-43.886 0-82.895-34.133-82.895-82.895s34.133-82.895 82.895-82.895 82.895 34.133 82.895 82.895-39.010 82.895-82.895 82.895zM516.876-39.619c-34.133 0-63.39 14.629-87.771 34.133-24.381 24.381-34.133 53.638-34.133 87.771 0 9.752 0 14.629-4.876 19.505s-9.752 4.876-14.629 9.752c-4.876 4.876-14.629 4.876-19.505 4.876s-9.752-4.876-14.629-4.876c-14.629-14.629-24.381-24.381-43.886-29.257-29.257-14.629-63.39-14.629-92.648 0-14.629 4.876-29.257 14.629-39.010 24.381s-19.505 24.381-24.381 39.010c-4.876 14.629-9.752 29.257-9.752 48.762 0 14.629 4.876 34.133 9.752 48.762s14.629 29.257 24.381 39.010c4.876 4.876 9.752 9.752 9.752 14.629s0 9.752 0 14.629c0 4.876-4.876 9.752-9.752 9.752-4.876 4.876-9.752 4.876-14.629 4.876h-4.876c-34.133 0-63.39 14.629-87.771 34.133-24.381 24.381-34.133 53.638-34.133 87.771s14.629 63.39 34.133 87.771c24.381 19.505 53.638 29.257 87.771 29.257 9.752 0 14.629 0 19.505 4.876s9.752 4.876 9.752 14.629c4.876 4.876 4.876 14.629 4.876 19.505s-4.876 9.752-4.876 14.629c-19.505 9.752-29.257 24.381-34.133 39.010s-9.752 29.257-9.752 48.762c0 14.629 4.876 34.133 9.752 48.762 4.876 9.752 14.629 24.381 24.381 34.133s24.381 19.505 39.010 24.381 63.39 14.629 92.648 0c14.629-4.876 29.257-9.752 43.886-24.381 4.876-4.876 9.752-9.752 14.629-9.752s9.752 0 14.629 0c4.876 0 4.876 0 9.752 4.876 0 4.876 4.876 4.876 4.876 9.752 4.876 4.876 4.876 9.752 4.876 14.629v4.876c0 34.133 14.629 63.39 34.133 87.771 43.886 43.886 126.781 43.886 170.667 0 24.381-24.381 39.010-53.638 39.010-87.771 0-9.752 0-14.629 4.876-19.505s4.876-9.752 9.752-9.752c4.876 0 9.752-4.876 14.629 0 4.876 0 9.752 4.876 14.629 4.876 14.629 14.629 29.257 24.381 43.886 29.257 29.257 14.629 63.39 14.629 92.648 0 14.629-4.876 29.257-14.629 39.010-24.381s19.505-24.381 24.381-39.010c4.876-14.629 9.752-29.257 9.752-48.762s-4.876-34.133-9.752-48.762c-4.876-14.629-14.629-29.257-24.381-39.010-4.876-4.876-9.752-9.752-9.752-14.629s0-9.752 0-14.629c0-4.876 0-4.876 4.876-9.752 0-4.876 4.876-4.876 4.876-4.876 4.876-4.876 9.752-4.876 14.629-4.876h9.752c34.133 0 63.39-14.629 87.771-34.133 24.381-24.381 34.133-53.638 34.133-87.771s-14.629-63.39-34.133-87.771c-24.381-24.381-53.638-34.133-87.771-34.133-9.752 0-14.629 0-19.505-4.876s-9.752-4.876-9.752-9.752c0 0 0 0 0 0 0-4.876-4.876-9.752 0-14.629 0-4.876 4.876-9.752 4.876-14.629 14.629-14.629 24.381-29.257 29.257-43.886s9.752-29.257 9.752-48.762-4.876-34.133-9.752-48.762c-4.876-14.629-14.629-29.257-24.381-39.010s-24.381-19.505-39.010-24.381-63.39-14.629-92.648 0c-14.629 4.876-29.257 14.629-39.010 24.381-4.876 4.876-9.752 9.752-14.629 9.752s-9.752 0-14.629 0c-4.876 0-9.752-4.876-9.752-9.752s-4.876-9.752-4.876-14.629v-4.876c0-34.133-14.629-63.39-34.133-87.771-29.257-19.505-63.39-34.133-92.648-34.133zM360.838 194.438c14.629 0 29.257-4.876 43.886-9.752 19.505-4.876 34.133-19.505 48.762-39.010s19.505-39.010 19.505-58.514c0-14.629 4.876-24.381 9.752-34.133 14.629-14.629 43.886-14.629 58.514 0 9.752 9.752 9.752 19.505 9.752 29.257v4.876c0 19.505 4.876 43.886 19.505 58.514 9.752 19.505 29.257 29.257 48.762 39.010s39.010 9.752 63.39 4.876c19.505-4.876 39.010-14.629 58.514-29.257 4.876-4.876 9.752-9.752 14.629-9.752 9.752-4.876 19.505-4.876 29.257 0 4.876 0 9.752 4.876 14.629 9.752s4.876 9.752 9.752 14.629c0 4.876 4.876 9.752 4.876 14.629s0 9.752-4.876 14.629c0 4.876-4.876 9.752-9.752 14.629-19.505 19.505-29.257 39.010-29.257 58.514-4.876 19.505 0 43.886 9.752 63.39s24.381 34.133 39.010 48.762c19.505 9.752 39.010 19.505 58.514 19.505 14.629 0 24.381 4.876 34.133 9.752 9.752 9.752 9.752 19.505 9.752 29.257s-4.876 19.505-9.752 29.257c-9.752 9.752-19.505 9.752-29.257 9.752h-4.876c-19.505 0-43.886 4.876-58.514 19.505-19.505 9.752-29.257 29.257-39.010 48.762 0 4.876-4.876 4.876-4.876 9.752-4.876 19.505-9.752 34.133-4.876 53.638 0 24.381 9.752 43.886 24.381 58.514 4.876 4.876 9.752 9.752 9.752 14.629s4.876 9.752 4.876 14.629 0 9.752-4.876 14.629c0 4.876-4.876 9.752-9.752 14.629s-9.752 4.876-14.629 9.752-19.505 4.876-29.257 0c-4.876 0-9.752-4.876-14.629-9.752-19.505-19.505-39.010-29.257-58.514-34.133s-43.886 0-63.39 9.752c-19.505 9.752-34.133 19.505-48.762 39.010-9.752 19.505-19.505 39.010-19.505 58.514 0 14.629-4.876 24.381-9.752 34.133-14.629 14.629-43.886 14.629-58.514 0 0-9.752-4.876-19.505-4.876-29.257v-4.876c0-19.505-4.876-43.886-19.505-58.514-9.752-19.505-29.257-29.257-48.762-39.010-4.876 0-4.876-4.876-9.752-4.876-19.505-4.876-34.133-9.752-53.638-4.876-24.381 4.876-39.010 14.629-58.514 29.257-4.876 4.876-9.752 9.752-14.629 9.752-9.752 4.876-19.505 4.876-29.257 0-4.876 0-9.752-4.876-14.629-9.752s-4.876-4.876-9.752-9.752c0-4.876-4.876-9.752-4.876-14.629s0-9.752 4.876-14.629c0-4.876 4.876-9.752 9.752-14.629 19.505-19.505 29.257-39.010 29.257-58.514 4.876-19.505 0-43.886-9.752-63.39 0-19.505-14.629-39.010-34.133-48.762-14.629-14.629-39.010-19.505-58.514-19.505-14.629 0-24.381-4.876-34.133-9.752-9.752-9.752-9.752-19.505-9.752-29.257s4.876-19.505 9.752-29.257 19.505-9.752 29.257-9.752h4.876c19.505 0 43.886-4.876 58.514-19.505s29.257-29.257 39.010-48.762c9.752-19.505 9.752-39.010 4.876-63.39-4.876-19.505-14.629-39.010-29.257-58.514-4.876-4.876-9.752-9.752-9.752-14.629s-4.876-9.752-4.876-14.629 0-9.752 4.876-14.629c0-4.876 4.876-9.752 9.752-14.629s9.752-4.876 14.629-9.752 19.505-4.876 29.257 0c4.876 0 9.752 4.876 14.629 9.752 19.505 19.505 39.010 29.257 58.514 34.133 9.752 0 14.629 0 19.505 0zM814.324 326.095v0 0z" />
<glyph unicode="&#xe908;" glyph-name="trash" d="M745.244-64h-466.489c-39.822 0-73.956 17.067-96.711 39.822-28.444 28.444-39.822 62.578-39.822 96.711v608.711h-45.511c-28.444 0-45.511 22.756-45.511 45.511s22.756 45.511 45.511 45.511h187.733v45.511c0 39.822 17.067 73.956 39.822 96.711 22.756 28.444 56.889 45.511 96.711 45.511h187.733c34.133 0 73.956-17.067 96.711-39.822 28.444-28.444 39.822-62.578 39.822-96.711v-45.511h187.733c22.756 0 45.511-22.756 45.511-45.511s-22.756-45.511-45.511-45.511h-45.511v-603.022c0-39.822-17.067-73.956-39.822-96.711-34.133-34.133-68.267-51.2-102.4-51.2zM233.244 681.244v-603.022c0-11.378 5.689-22.756 11.378-34.133 11.378-11.378 22.756-11.378 34.133-11.378h460.8c11.378 0 22.756 5.689 34.133 11.378 11.378 11.378 11.378 22.756 11.378 34.133v603.022h-551.822zM375.467 772.267h278.756v45.511c0 11.378-5.689 22.756-11.378 34.133-11.378 11.378-22.756 11.378-34.133 11.378h-187.733c-11.378 0-22.756-5.689-34.133-11.378-11.378-11.378-11.378-22.756-11.378-34.133v-45.511zM603.022 169.244c-22.756 0-45.511 22.756-45.511 45.511v278.756c0 28.444 22.756 45.511 45.511 45.511s45.511-22.756 45.511-45.511v-278.756c0-22.756-17.067-45.511-45.511-45.511zM420.978 169.244c-28.444 0-45.511 22.756-45.511 45.511v278.756c0 28.444 22.756 45.511 45.511 45.511s45.511-22.756 45.511-45.511v-278.756c0-22.756-22.756-45.511-45.511-45.511z" />
<glyph unicode="&#xe909;" glyph-name="upload" d="M512 43.276c-24.381 0-39.010 19.505-39.010 39.010v268.19l-92.648-92.648c-14.629-14.629-43.886-14.629-58.514 0s-14.629 43.886 0 58.514l160.914 160.914c0 0 0 0 0 0s0 0 0 0 0 0 0 0 0 0 0 0 0 0 0 0v0c0 0 0 0 0 0v0c0 0 0 0 0 0s0 0 0 0 0 0 0 0 0 0 0 0 0 0 0 0 0 0 0 0 0 0 0 0 0 0 0 0 0 0 0 0 0 0 0 0v0c4.876 4.876 9.752 4.876 9.752 9.752 4.876 0 9.752 4.876 14.629 4.876 0 0 0 0 0 0v0c0 0 0 0 0 0v0c0 0 0 0 0 0 4.876 0 9.752 0 14.629-4.876 0 0 0 0 0 0 4.876 0 9.752-4.876 14.629-9.752 0 0 0 0 0 0s0 0 0 0 0 0 0 0 0 0 0 0 0 0 0 0 0 0 0 0l160.914-160.914c14.629-14.629 14.629-43.886 0-58.514s-43.886-14.629-58.514 0l-92.648 92.648v-268.19c4.876-24.381-9.752-39.010-34.133-39.010zM853.333 145.676c-14.629 0-29.257 9.752-34.133 19.505-9.752 19.505-4.876 43.886 14.629 53.638 29.257 19.505 58.514 43.886 73.143 78.019s19.505 68.267 9.752 107.276c-14.629 39.010-34.133 68.267-63.39 92.648s-63.39 34.133-97.524 34.133h-48.762c-19.505 0-34.133 14.629-39.010 29.257-9.752 39.010-29.257 78.019-58.514 112.152s-63.39 58.514-102.4 78.019c-43.886 14.629-82.895 24.381-126.781 24.381s-82.895-14.629-121.905-34.133c-39.010-19.505-73.143-48.762-97.524-82.895s-43.886-73.143-48.762-117.029-4.876-87.771 4.876-126.781c9.752-39.010 34.133-78.019 58.514-112.152 14.629-14.629 14.629-43.886-4.876-58.514-14.629-14.629-39.010-14.629-53.638 4.876-34.133 39.010-63.39 92.648-78.019 146.286-14.629 48.762-19.505 107.276-9.752 160.914s34.133 107.276 63.39 151.162c34.133 43.886 78.019 78.019 126.781 107.276 48.762 24.381 102.4 39.010 156.038 43.886 53.638 0 112.152-9.752 160.914-29.257 48.762-24.381 97.524-53.638 131.657-97.524 29.257-34.133 53.638-73.143 68.267-117.029h19.505c53.638 0 107.276-19.505 151.162-53.638s73.143-78.019 87.771-131.657c14.629-53.638 9.752-107.276-14.629-156.038-19.505-48.762-58.514-92.648-107.276-117.029-4.876-4.876-14.629-9.752-19.505-9.752z" />
<glyph unicode="&#xe90a;" glyph-name="check-circle" d="M512-21.333c-51.2 0-110.933 8.533-162.133 25.6-93.867 34.133-179.2 102.4-230.4 187.733s-85.333 187.733-76.8 290.133c8.533 102.4 42.667 196.267 110.933 273.067s153.6 128 256 153.6c93.867 17.067 204.8 8.533 290.133-34.133 25.6-8.533 34.133-34.133 25.6-59.733-8.533-17.067-34.133-25.6-59.733-17.067-68.267 34.133-162.133 42.667-238.933 25.6s-153.6-59.733-204.8-128c-51.2-59.733-85.333-136.533-93.867-221.867s17.067-162.133 59.733-230.4c42.667-68.267 110.933-119.467 187.733-153.6 76.8-25.6 162.133-34.133 238.933-8.533 85.333 25.6 153.6 68.267 204.8 136.533s76.8 145.067 76.8 230.4v42.667c0 17.067 17.067 42.667 42.667 42.667s42.667-17.067 42.667-42.667v-42.667c0-102.4-34.133-196.267-93.867-281.6s-145.067-136.533-238.933-170.667c-42.667-8.533-93.867-17.067-136.533-17.067zM512 320c-8.533 0-25.6 8.533-34.133 8.533l-128 128c-8.533 17.067-8.533 51.2 0 59.733s42.667 17.067 59.733 0l102.4-93.867 392.533 401.067c17.067 17.067 42.667 17.067 59.733 0s17.067-42.667 0-59.733l-426.667-426.667c0-17.067-17.067-17.067-25.6-17.067z" />
<glyph unicode="&#xe90b;" glyph-name="lock" horiz-adv-x="928" d="M788.918-64h-649.463c-75.704 0-139.455 63.751-139.455 139.455v326.724c0 75.704 63.751 139.455 139.455 139.455h47.813v139.455c0 75.704 27.891 143.44 79.689 195.237 51.798 55.782 123.518 83.673 199.222 83.673 71.72 0 143.44-27.891 199.222-79.689 51.798-51.798 79.689-123.518 79.689-199.222v-139.455h47.813c75.704 0 139.455-63.751 139.455-139.455v-326.724c-3.984-75.704-63.751-139.455-143.44-139.455zM139.455 449.992c-23.907 0-47.813-19.922-47.813-47.813v-326.724c0-23.907 19.922-47.813 47.813-47.813h649.463c23.907 0 47.813 19.922 47.813 47.813v326.724c0 23.907-19.922 47.813-47.813 47.813h-649.463zM278.911 541.634h370.553v139.455c0 47.813-19.922 95.626-55.782 131.486s-83.673 55.782-131.486 55.782c-47.813 0-95.626-19.922-131.486-55.782-31.875-35.86-51.798-83.673-51.798-131.486v-139.455z" />
<glyph unicode="&#xe90c;" glyph-name="check" d="M384 166.4c-17.067 0-34.133 8.533-51.2 17.067l-213.333 213.333c-25.6 25.6-25.6 76.8 0 102.4s76.8 25.6 102.4 0l162.133-162.133 418.133 418.133c25.6 25.6 76.8 25.6 102.4 0s25.6-76.8 0-102.4l-469.333-469.333c-17.067-17.067-34.133-17.067-51.2-17.067z" />
<glyph unicode="&#xe90d;" glyph-name="mail" horiz-adv-x="1075" d="M880.64 64h-686.080c-71.68 0-128 56.32-128 128v512c0 0 0 0 0 0 0 71.68 56.32 128 128 128h680.96c71.68 0 128-56.32 128-128 0 0 0 0 0 0v-512c5.12-71.68-56.32-128-122.88-128zM153.6 622.080v-430.080c0-25.6 20.48-40.96 40.96-40.96h680.96c25.6 0 40.96 20.48 40.96 40.96v430.080l-358.4-250.88c-15.36-10.24-35.84-10.24-51.2 0l-353.28 250.88zM158.72 724.48l378.88-266.24 378.88 266.24c-5.12 15.36-20.48 25.6-35.84 25.6h-686.080c-15.36-5.12-30.72-15.36-35.84-25.6z" />
<glyph unicode="&#xe90e;" glyph-name="alert-circle" d="M512-21.333c-256 0-469.333 213.333-469.333 469.333s213.333 469.333 469.333 469.333c256 0 469.333-213.333 469.333-469.333s-213.333-469.333-469.333-469.333zM512 832c-213.333 0-384-170.667-384-384s170.667-384 384-384 384 170.667 384 384-170.667 384-384 384zM512 234.667c-25.6 0-42.667 17.067-42.667 42.667s17.067 42.667 42.667 42.667v0c25.6 0 42.667-17.067 42.667-42.667s-17.067-42.667-42.667-42.667zM512 405.333c-25.6 0-42.667 17.067-42.667 42.667v170.667c0 25.6 17.067 42.667 42.667 42.667s42.667-17.067 42.667-42.667v-170.667c0-25.6-17.067-42.667-42.667-42.667z" />
<glyph unicode="&#xe90f;" glyph-name="camera" horiz-adv-x="1132" d="M977.23 806.242h-152.118l-75.086 112.703c-2.9 4.347-6.828 7.909-11.436 10.37s-9.755 3.745-14.983 3.737h-338.162c-5.225 0.008-10.372-1.276-14.981-3.737s-8.539-6.024-11.439-10.37l-75.136-112.703h-152.067c-30.83 0-60.397-12.247-82.197-34.047s-34.047-51.367-34.047-82.196v-591.786c0-30.828 12.247-60.394 34.047-82.195s51.367-34.051 82.197-34.051h845.407c30.828 0 60.394 12.25 82.195 34.051s34.051 51.367 34.051 82.195v591.786c0 30.829-12.25 60.397-34.051 82.196s-51.367 34.047-82.195 34.047zM1030.069 98.212c0-14.013-5.567-27.454-15.479-37.36-9.906-9.911-23.347-15.479-37.36-15.479h-845.407c-14.014 0-27.453 5.567-37.363 15.479-9.909 9.906-15.476 23.347-15.476 37.36v591.786c0 14.013 5.567 27.453 15.476 37.362s23.349 15.476 37.363 15.476h169.081c5.225-0.008 10.372 1.276 14.981 3.737s8.539 6.024 11.439 10.37l75.082 112.704h304.187l75.135-112.704c2.905-4.347 6.834-7.909 11.442-10.37s9.755-3.745 14.977-3.737h169.084c14.013 0 27.454-5.567 37.36-15.476 9.911-9.909 15.479-23.349 15.479-37.362v-591.786zM554.528 637.16c-43.893 0-86.8-13.015-123.294-37.4s-64.938-59.044-81.735-99.594c-16.796-40.55-21.191-85.17-12.629-128.222 8.563-43.046 29.699-82.588 60.735-113.626 31.036-31.033 70.578-52.17 113.626-60.734s87.668-4.166 128.218 12.628c40.55 16.799 75.21 45.245 99.597 81.737 24.382 36.498 37.398 79.403 37.398 123.295 0 58.854-23.38 115.3-64.997 156.918s-98.067 64.999-156.92 64.999zM554.528 256.728c-31.353 0-62 9.297-88.068 26.716-26.067 17.413-46.385 42.173-58.382 71.136s-15.137 60.836-9.020 91.586c6.117 30.749 21.214 58.993 43.382 81.162s50.413 37.266 81.162 43.382c30.749 6.117 62.622 2.977 91.585-9.020s53.722-32.315 71.141-58.382c17.413-26.068 26.71-56.715 26.71-88.063 0-42.043-16.697-82.362-46.425-112.090-29.728-29.723-70.047-46.425-112.085-46.425z" />
<glyph unicode="&#xe910;" glyph-name="plus" d="M512 108.8c-25.6 0-44.8 19.2-44.8 44.8v256h-256c-19.2-6.4-38.4 12.8-38.4 38.4s19.2 44.8 38.4 44.8h256v256c0 19.2 19.2 38.4 44.8 38.4s44.8-19.2 44.8-38.4v-256h256c25.6 0 44.8-19.2 44.8-44.8s-25.6-44.8-44.8-44.8h-256v-256c0-19.2-19.2-38.4-44.8-38.4z" />
<glyph unicode="&#xe911;" glyph-name="chevron-down" d="M512 279.040c-10.24 0-20.48 5.12-30.72 10.24l-256 256c-15.36 15.36-15.36 46.080 0 61.44s46.080 15.36 61.44 0l225.28-225.28 225.28 225.28c15.36 15.36 46.080 15.36 61.44 0s15.36-46.080 0-61.44l-256-256c-10.24-10.24-20.48-10.24-30.72-10.24z" />
<glyph unicode="&#xe912;" glyph-name="help-circle" horiz-adv-x="1088" d="M544-19.2c-256 0-467.2 211.2-467.2 467.2s211.2 467.2 467.2 467.2 467.2-211.2 467.2-467.2-211.2-467.2-467.2-467.2zM544 832c-211.2 0-384-172.8-384-384s172.8-384 384-384 384 172.8 384 384-172.8 384-384 384zM544 192c-25.6 0-44.8 19.2-44.8 44.8s19.2 44.8 44.8 44.8v0c25.6 0 44.8-19.2 44.8-44.8s-19.2-44.8-44.8-44.8zM537.6 364.8c-19.2 0-32 12.8-38.4 32s6.4 38.4 25.6 51.2c25.6 6.4 96 44.8 96 89.6 0 19.2-6.4 38.4-19.2 57.6-6.4 6.4-25.6 19.2-44.8 19.2-19.2 6.4-44.8 0-57.6-6.4-19.2-12.8-32-25.6-38.4-44.8-6.4-25.6-32-38.4-57.6-25.6-19.2 6.4-32 32-25.6 51.2 12.8 38.4 38.4 70.4 76.8 89.6 32 25.6 76.8 32 115.2 25.6s76.8-25.6 102.4-57.6c25.6-32 38.4-70.4 38.4-108.8 0-115.2-140.8-160-160-166.4 0-6.4-6.4-6.4-12.8-6.4z" />
<glyph unicode="&#xe913;" glyph-name="calendar" d="M808.96-23.040h-593.92c-71.68 0-128 56.32-128 128v599.040c0 71.68 56.32 128 128 128h87.040v40.96c0 25.6 20.48 40.96 40.96 40.96s40.96-20.48 40.96-40.96v-40.96h256v40.96c0 25.6 20.48 40.96 40.96 40.96s40.96-20.48 40.96-40.96v-40.96h87.040c71.68 0 128-56.32 128-128v-599.040c0-66.56-56.32-128-128-128zM168.96 488.96v-384c0-25.6 20.48-40.96 40.96-40.96h599.040c25.6 0 40.96 20.48 40.96 40.96v384h-680.96zM168.96 576h680.96v128c0 25.6-20.48 40.96-40.96 40.96h-87.040v-40.96c0-25.6-20.48-40.96-40.96-40.96s-40.96 15.36-40.96 40.96v40.96h-256v-40.96c0-25.6-20.48-40.96-40.96-40.96s-46.080 15.36-46.080 40.96v40.96h-81.92c-25.6 0-46.080-15.36-46.080-40.96v-128z" />
<glyph unicode="&#xe914;" glyph-name="alert-triangle" d="M132.267-4.267c-25.6 0-46.933 8.533-68.267 17.067-21.333 12.8-38.4 29.867-46.933 51.2-12.8 21.333-17.067 42.667-17.067 68.267s4.267 46.933 17.067 68.267l379.733 635.733c0 0 0 0 0 0 12.8 21.333 29.867 34.133 51.2 46.933 38.4 21.333 93.867 21.333 132.267 0 21.333-12.8 38.4-25.6 46.933-46.933l379.733-635.733c12.8-21.333 17.067-42.667 17.067-68.267s-4.267-46.933-17.067-68.267c-12.8-21.333-29.867-38.4-46.933-51.2-21.333-12.8-42.667-17.067-68.267-17.067h-759.467zM473.6 789.333l-379.733-635.733c-4.267-4.267-4.267-12.8-4.267-21.333s0-17.067 4.267-21.333c4.267-8.533 8.533-12.8 17.067-17.067s12.8-4.267 21.333-4.267h759.467c8.533 0 17.067 4.267 21.333 4.267 8.533 4.267 12.8 8.533 17.067 17.067s4.267 12.8 4.267 21.333c0 8.533-4.267 17.067-4.267 21.333l-379.733 635.733c-4.267 4.267-8.533 12.8-17.067 17.067-12.8 8.533-29.867 8.533-42.667 0-8.533-4.267-12.8-12.8-17.067-17.067zM512 174.933c-25.6 0-46.933 21.333-46.933 46.933s21.333 46.933 42.667 46.933v0c25.6 0 46.933-21.333 46.933-46.933 4.267-25.6-17.067-46.933-42.667-46.933zM512 354.133c-25.6 0-46.933 21.333-46.933 46.933v179.2c0 25.6 21.333 46.933 46.933 46.933s46.933-21.333 46.933-46.933v-179.2c0-25.6-21.333-46.933-46.933-46.933z" />
<glyph unicode="&#xe915;" glyph-name="user-plus" d="M682.667 21.333c-25.6 0-42.667 17.067-42.667 42.667v85.333c0 34.133-12.8 68.267-38.4 89.6s-55.467 38.4-89.6 38.4h-298.667c-34.133 0-68.267-12.8-89.6-38.4-25.6-21.333-38.4-55.467-38.4-89.6v-85.333c0-25.6-17.067-42.667-42.667-42.667s-42.667 17.067-42.667 42.667v85.333c0 55.467 21.333 110.933 64 149.333 38.4 42.667 93.867 64 149.333 64h298.667c55.467 0 110.933-21.333 149.333-64s64-93.867 64-149.333v-85.333c0-25.6-17.067-42.667-42.667-42.667zM853.333 320c-25.6 0-42.667 17.067-42.667 42.667v85.333h-85.333c-25.6 0-42.667 17.067-42.667 42.667s17.067 42.667 42.667 42.667h85.333v85.333c0 25.6 17.067 42.667 42.667 42.667s42.667-17.067 42.667-42.667v-85.333h85.333c25.6 0 42.667-17.067 42.667-42.667s-17.067-42.667-42.667-42.667h-85.333v-85.333c0-25.6-17.067-42.667-42.667-42.667zM362.667 448c-119.467 0-213.333 93.867-213.333 213.333s93.867 213.333 213.333 213.333 213.333-93.867 213.333-213.333-93.867-213.333-213.333-213.333zM362.667 789.333c-72.533 0-128-55.467-128-128s55.467-128 128-128 128 55.467 128 128-55.467 128-128 128z" />
<glyph unicode="&#xe916;" glyph-name="logout" horiz-adv-x="1060" d="M480.97-64h-253.414c-124.121 0-227.556 103.434-227.556 227.556v568.889c0 124.121 103.434 227.556 227.556 227.556h253.414c124.121 0 227.556-103.434 227.556-227.556v-46.545c0-20.687-15.515-36.202-36.202-36.202s-41.374 15.515-41.374 36.202v46.545c0 82.747-67.232 149.98-149.98 149.98h-253.414c-82.747 0-149.98-67.232-149.98-149.98v-568.889c0-82.747 67.232-149.98 149.98-149.98h253.414c82.747 0 149.98 67.232 149.98 149.98v46.545c0 20.687 15.515 36.202 41.374 36.202 20.687 0 41.374-15.515 41.374-36.202v-46.545c-5.172-124.121-103.434-227.556-232.727-227.556zM1060.202 448c0 0 0-5.172 0-5.172 0-5.172-5.172-15.515-10.343-20.687l-149.98-149.98c-5.172-10.343-15.515-10.343-25.859-10.343s-20.687 5.172-25.859 10.343c-15.515 15.515-15.515 41.374 0 51.717l82.747 82.747h-532.687c-20.687 5.172-36.202 20.687-36.202 41.374s15.515 36.202 41.374 36.202h527.515l-82.747 82.747c-15.515 15.515-15.515 41.374 0 51.717 15.515 15.515 41.374 15.515 51.717 0l149.98-149.98c5.172-5.172 5.172-10.343 10.343-10.343 0 0 0-5.172 0-10.343z" />
<glyph unicode="&#xe917;" glyph-name="edit-2" horiz-adv-x="1084" d="M843.294 815.529c-12.264 0-24.028-4.874-32.702-13.543v-0.001l-615.653-615.653-21.801-87.203 87.204 21.799 615.66 615.66c4.295 4.29 7.692 9.382 10.017 14.988 2.331 5.628 3.524 11.646 3.524 17.707s-1.193 12.078-3.524 17.706v0.001c-2.325 5.605-5.722 10.698-10.017 14.99-4.307 4.304-9.403 7.708-15.005 10.029-5.614 2.324-11.631 3.521-17.703 3.521zM725.408 887.169c31.268 31.268 73.674 48.831 117.886 48.831 21.89 0 43.568-4.312 63.801-12.69 20.233-8.382 38.605-20.663 54.079-36.134v-0.001c15.493-15.485 27.774-33.868 36.147-54.102v0.001c0 0 0-0.001 0-0.001 8.373-20.21 12.692-41.885 12.692-63.791 0-21.907-4.319-43.581-12.692-63.791-8.373-20.231-20.655-38.612-36.141-54.096l-0.006-0.007-627.445-627.446c-7.72-7.722-17.392-13.198-27.984-15.842l-200.784-50.194c-20.526-5.132-42.241 0.879-57.201 15.842s-20.975 36.677-15.844 57.199l50.196 200.782c2.648 10.595 8.125 20.263 15.844 27.985l627.451 627.452zM725.408 887.169v0zM481.883 16.342c0 33.268 26.968 60.235 60.235 60.235h451.764c33.268 0 60.235-26.967 60.235-60.235s-26.967-60.235-60.235-60.235h-451.764c-33.267 0-60.235 26.967-60.235 60.235z" />
</font>
</defs>
</svg>
