<svg xmlns="http://www.w3.org/2000/svg" xmlns:xlink="http://www.w3.org/1999/xlink" width="500" zoomAndPan="magnify" viewBox="0 0 375 374.999991" height="500" preserveAspectRatio="xMidYMid meet" version="1.0"><defs><g/></defs><g fill="#ffffff" fill-opacity="1"><g transform="translate(92.483373, 253.645194)"><g><path d="M 57.109375 0 L 42.0625 0 L 42.0625 -115.453125 L 1.578125 -115.453125 L 1.578125 -128.65625 L 97.40625 -128.65625 L 97.40625 -115.453125 L 57.109375 -115.453125 Z M 57.109375 0 "/></g></g></g><g fill="#ffffff" fill-opacity="1"><g transform="translate(191.680803, 253.645194)"><g><path d="M 33.609375 1.765625 C 27.210938 1.765625 21.609375 1.289062 16.796875 0.34375 C 11.992188 -0.59375 7.539062 -2.023438 3.4375 -3.953125 L 3.4375 -18.65625 C 7.125 -16.78125 11.460938 -15.0625 16.453125 -13.5 C 21.441406 -11.945312 27.222656 -11.171875 33.796875 -11.171875 C 37.835938 -11.171875 41.707031 -11.640625 45.40625 -12.578125 C 49.101562 -13.515625 52.398438 -14.976562 55.296875 -16.96875 C 58.203125 -18.96875 60.488281 -21.519531 62.15625 -24.625 C 63.832031 -27.738281 64.671875 -31.441406 64.671875 -35.734375 C 64.671875 -39.191406 63.921875 -42.253906 62.421875 -44.921875 C 60.929688 -47.585938 58.570312 -50.164062 55.34375 -52.65625 C 52.125 -55.15625 47.898438 -57.84375 42.671875 -60.71875 C 38.210938 -63.351562 34.207031 -66.125 30.65625 -69.03125 C 27.113281 -71.9375 24.316406 -75.335938 22.265625 -79.234375 C 20.210938 -83.140625 19.1875 -87.878906 19.1875 -93.453125 C 19.1875 -99.429688 20.300781 -104.722656 22.53125 -109.328125 C 24.757812 -113.941406 27.820312 -117.816406 31.71875 -120.953125 C 35.625 -124.085938 40.113281 -126.460938 45.1875 -128.078125 C 50.257812 -129.691406 55.640625 -130.5 61.328125 -130.5 C 68.078125 -130.5 73.941406 -129.820312 78.921875 -128.46875 C 83.910156 -127.125 88.722656 -125.304688 93.359375 -123.015625 L 87.640625 -110.34375 C 84.359375 -112.101562 80.414062 -113.703125 75.8125 -115.140625 C 71.207031 -116.578125 66.378906 -117.296875 61.328125 -117.296875 C 57.640625 -117.296875 54.195312 -116.8125 51 -115.84375 C 47.800781 -114.875 45 -113.421875 42.59375 -111.484375 C 40.1875 -109.554688 38.304688 -107.164062 36.953125 -104.3125 C 35.609375 -101.46875 34.9375 -98.171875 34.9375 -94.421875 C 34.9375 -90.609375 35.65625 -87.441406 37.09375 -84.921875 C 38.53125 -82.398438 40.640625 -80.109375 43.421875 -78.046875 C 46.210938 -75.992188 49.660156 -73.765625 53.765625 -71.359375 C 58.984375 -68.316406 63.585938 -65.28125 67.578125 -62.25 C 71.566406 -59.226562 74.675781 -55.738281 76.90625 -51.78125 C 79.132812 -47.820312 80.25 -42.851562 80.25 -36.875 C 80.25 -30.414062 79.117188 -24.765625 76.859375 -19.921875 C 74.609375 -15.085938 71.398438 -11.070312 67.234375 -7.875 C 63.066406 -4.675781 58.132812 -2.269531 52.4375 -0.65625 C 46.75 0.957031 40.472656 1.765625 33.609375 1.765625 Z M 33.609375 1.765625 "/></g></g></g></svg>